<svg xmlns="http://www.w3.org/2000/svg" viewBox="0 0 128 128" role="img" aria-labelledby="title desc">
  <title id="title">Catalog service icon</title>
  <desc id="desc">Two forward-directed geometric modules on a black rounded square.</desc>

  <rect x="4" y="4" width="120" height="120" rx="8" fill="#000000"/>

  <g fill="#C9D4CF">
    <path d="M31 38
             L11 58
             Q8 61 11 64
             L31 84
             Q35 88 35 82
             V40
             Q35 34 31 38Z"/>

    <path d="M57 10
             Q61 6 65 10
             L116 58
             Q120 62 116 66
             L65 117
             Q61 121 57 117
             L38 98
             Q34 94 38 90
             L58 70
             Q62 66 58 62
             L38 43
             Q34 39 38 35Z"/>
  </g>
</svg>
