<svg width="104" height="103" viewBox="0 0 104 103" fill="none" xmlns="http://www.w3.org/2000/svg">
<path d="M103.076 89.984C103.068 97.0848 97.3055 102.847 90.2047 102.855L45.215 102.904C45.2119 102.904 45.2089 102.904 45.206 102.902C45.2032 102.901 45.2002 102.901 45.1971 102.901L12.9988 102.937C5.89809 102.945 0.148078 97.1949 0.155919 90.0942L0.190974 58.3488C0.198815 51.2483 5.96123 45.4858 13.0618 45.4778L32.4129 45.4561C39.5134 45.4481 45.2758 39.6856 45.2837 32.585L45.3054 12.9066C45.3133 5.80591 51.0758 0.0433437 58.1765 0.0355027L90.3179 8.00938e-06C97.4185 -0.00783265 103.168 5.74195 103.16 12.8426L103.076 89.984Z" fill="white"/>
<path d="M0.010448 7.81896C0.0122974 3.55453 3.47383 0.0929969 7.73826 0.0911472L31.8301 0.080699C38.7001 0.077719 42.1283 8.38027 37.2651 13.2435L13.1628 37.3458C8.29956 42.209 -0.00297881 38.7808 8.01772e-07 31.9108L0.010448 7.81896Z" fill="#48B062"/>
</svg>
